M48
;GenerationSoftware,Autodesk,EAGLE,9.7.0*%
;CreationDate,2021-02-03T09:28:56Z*%
FMAT,2
ICI,OFF
METRIC,TZ,000.000
T8C0.350
T7C0.800
T6C0.813
T5C1.000
T4C1.016
T3C1.100
T2C1.321
T1C2.540
%
G90
M71
T1
X2540Y77470
X97790Y77470
X97790Y2540
X2540Y2540
T2
X83820Y7620
X73660Y5080
X83820Y2540
T3
X91440Y50800
X91440Y58420
T4
X6350Y57150
X6350Y54610
X3810Y52070
X3810Y49530
X3810Y46990
X3810Y44450
X3810Y41910
X3810Y39370
X6350Y52070
X6350Y49530
X6350Y46990
X6350Y44450
X6350Y41910
X6350Y39370
X83820Y62230
X83820Y59690
X83820Y57150
X83820Y54610
X83820Y52070
X92710Y62230
X90170Y62230
X92710Y3175
X90170Y3175
X87630Y3175
X7620Y8890
X10160Y8890
X12700Y8890
X15240Y8890
X17780Y8890
X20320Y8890
X22860Y8890
X25400Y8890
X27940Y8890
X30480Y8890
X33020Y8890
X35560Y8890
X38100Y8890
X40640Y8890
X43180Y8890
X57150Y77470
X57150Y74930
X67310Y74930
X57150Y72390
X57150Y69850
X59690Y77470
X59690Y74930
X59690Y72390
X59690Y69850
X64770Y74930
X69850Y74930
X72390Y74930
X74930Y74930
X64770Y77470
X69850Y77470
X72390Y77470
X74930Y77470
X3810Y59690
X6350Y59690
X91440Y46990
X91440Y44450
X91440Y41910
X16510Y3492
X13970Y3492
X11430Y3492
X67310Y77470
X25400Y3492
X22860Y3492
X20320Y3492
X34290Y3492
X31750Y3492
X29210Y3492
X96520Y13970
X96520Y16510
X96520Y19050
X3810Y57150
X3810Y54610
X33020Y69850
X33020Y67310
X33020Y64770
X35560Y69850
X35560Y67310
X35560Y64770
X3810Y62230
X6350Y62230
T5
X83820Y76850
X83820Y66750
X97790Y30496
X83820Y72850
X97790Y72406
X91440Y30496
X91440Y72406
X79020Y69850
T6
X17780Y31750
X20320Y31750
X25400Y31750
X22860Y31750
X30480Y39370
X27940Y39370
X25400Y39370
X22860Y39370
X20320Y39370
X17780Y39370
X15240Y39370
X12700Y39370
X12700Y44450
X15240Y44450
X27940Y44450
X30480Y44450
X17780Y44450
X20320Y44450
X25400Y44450
X22860Y44450
X30480Y52070
X27940Y52070
X25400Y52070
X22860Y52070
X20320Y52070
X17780Y52070
X15240Y52070
X12700Y52070
X12700Y57150
X15240Y57150
X27940Y57150
X30480Y57150
X17780Y57150
X20320Y57150
X25400Y57150
X22860Y57150
X30480Y64770
X27940Y64770
X25400Y64770
X22860Y64770
X20320Y64770
X17780Y64770
X15240Y64770
X12700Y64770
X12700Y69850
X15240Y69850
X27940Y69850
X30480Y69850
X17780Y69850
X20320Y69850
X25400Y69850
X22860Y69850
X27940Y77470
X25400Y77470
X22860Y77470
X20320Y77470
X17780Y77470
X15240Y77470
X12700Y77470
X60960Y44450
X63500Y44450
X76200Y44450
X78740Y44450
X66040Y44450
X68580Y44450
X73660Y44450
X71120Y44450
X78740Y52070
X76200Y52070
X73660Y52070
X71120Y52070
X68580Y52070
X66040Y52070
X63500Y52070
X60960Y52070
X60960Y57150
X63500Y57150
X76200Y57150
X78740Y57150
X66040Y57150
X68580Y57150
X73660Y57150
X71120Y57150
X78740Y64770
X76200Y64770
X73660Y64770
X71120Y64770
X68580Y64770
X66040Y64770
X63500Y64770
X60960Y64770
X49530Y12700
X52070Y12700
X64770Y12700
X64770Y20320
X54610Y12700
X57150Y12700
X62230Y12700
X59690Y12700
X62230Y20320
X59690Y20320
X57150Y20320
X54610Y20320
X52070Y20320
X49530Y20320
X72390Y12700
X74930Y12700
X87630Y12700
X87630Y20320
X77470Y12700
X80010Y12700
X85090Y12700
X82550Y12700
X85090Y20320
X82550Y20320
X80010Y20320
X77470Y20320
X74930Y20320
X72390Y20320
X72390Y39370
X71120Y41275
X69850Y39370
X67310Y40640
X57150Y40640
X71120Y5080
X60960Y5080
X59690Y2487
X49530Y2593
X71120Y2540
X60960Y2540
X57150Y29210
X67310Y29210
X80010Y34290
X69850Y34290
X54610Y33020
X44450Y33020
X80010Y29210
X69850Y29210
X57150Y31750
X67310Y31750
X80010Y31750
X69850Y31750
X44450Y40640
X54610Y40640
X69850Y36830
X80010Y36830
X44450Y35560
X54610Y35560
X52070Y67310
X52070Y77470
X49530Y67310
X49530Y77470
X46990Y67310
X46990Y77470
X44450Y67310
X44450Y77470
X41910Y67310
X41910Y77470
X39370Y67310
X39370Y77470
X36830Y2540
X46990Y2540
X49530Y7620
X59690Y7620
X57150Y24130
X67310Y24130
X57150Y26670
X67310Y26670
X44450Y30480
X54610Y30480
X59690Y5080
X49530Y5080
X40640Y57150
X43180Y57150
X48260Y64770
X45720Y64770
X45720Y57150
X48260Y57150
X50800Y64770
X50800Y57150
X43180Y64770
X40640Y64770
X44450Y38100
X54610Y38100
X64770Y71120
X74930Y71120
X34290Y77470
X34290Y72390
X69850Y68580
X66040Y68580
X36830Y57150
X36830Y60960
X64770Y34290
X64770Y38100
X59690Y38100
X34290Y38100
X34290Y33020
X45720Y15240
X45720Y20320
X68580Y15240
X68580Y20320
X34290Y62230
X34290Y57150
X34290Y50800
X34290Y45720
X57150Y50800
X57150Y45720
X63500Y7620
X68580Y7620
X53340Y24765
X48260Y24765
X39370Y5080
X44450Y5080
X8464Y2649
X4871Y6241
X59690Y34290
X30480Y77470
X85090Y24130
X80010Y24130
X69850Y24130
X77470Y24130
X69850Y26670
X77470Y26670
X38100Y44450
X40640Y44450
X53340Y44450
X53340Y52070
X43180Y44450
X45720Y44450
X50800Y44450
X48260Y44450
X50800Y52070
X48260Y52070
X45720Y52070
X43180Y52070
X40640Y52070
X38100Y52070
X12700Y31750
X15240Y31750
X27940Y31750
X30480Y31750
T7
X26670Y27940
X29210Y27940
X31750Y27940
X92710Y25130
X34290Y27940
X36830Y27940
X39370Y27940
X38100Y31067
X92710Y7890
X92710Y9890
X92710Y23130
X38100Y33068
X56515Y59642
X56515Y61642
X3810Y27940
X6350Y27940
X8890Y27940
X11430Y27940
X39370Y12700
X36830Y12700
X34290Y12700
X31750Y12700
X29210Y12700
X26670Y12700
X24130Y12700
X21590Y12700
X19050Y12700
X16510Y12700
X13970Y12700
X11430Y12700
X8890Y12700
X6350Y12700
X3810Y12700
X13970Y27940
X16510Y27940
X19050Y27940
X21590Y27940
X24130Y27940
X41354Y40005
X39926Y38735
X41354Y37465
X39926Y36195
T8
X52705Y37465
X54610Y50800
X71755Y24130
X73660Y24130
X49847Y49212
X3810Y33020
X6032Y36513
X30480Y37148
X31750Y30480
X19050Y41910
X20003Y37148
X7620Y43180
X7620Y45720
X32385Y40640
X33020Y30480
X20320Y47625
X27622Y62547
X25400Y62547
X25400Y46990
X21590Y46990
X21590Y62547
X23812Y73343
X59055Y60007
X56515Y66675
X54292Y67945
X52070Y74930
X17780Y41910
X18098Y72390
X60642Y60007
X56515Y68580
X53657Y74295
X54582Y71120
X22240Y73358
X9525Y30162
X25400Y30480
X22860Y26670
X34290Y24765
X9525Y44450
X10160Y41910
X10160Y60642
X12382Y60642
X61935Y47041
X27940Y48895
X29845Y48260
X15875Y46355
X29210Y46672
X64452Y55245
X36513Y42863
X37699Y40089
X47307Y40351
X51792Y42636
X69850Y41910
X76200Y49212
X58420Y43180
X58420Y66703
X80645Y57785
X67628Y72073
X69850Y72073
X73660Y69850
X67310Y61912
X67310Y71120
X54927Y64452
X52070Y47625
X60642Y47625
X62230Y66040
X62230Y61912
X64770Y56197
X63230Y73930
X59896Y68057
X72390Y61912
X72390Y66358
X83185Y23495
X73343Y25400
X62230Y54610
X74930Y40640
X78740Y40640
X45402Y50165
X47000Y29343
X39393Y53437
X39384Y54900
X33020Y34290
X10160Y58737
X15240Y59690
X33338Y40640
X38372Y41034
X10683Y34402
X50165Y41910
X55245Y9525
X46990Y4763
X71120Y11430
X51435Y10795
X53340Y8890
X53340Y18733
X53340Y14996
X59703Y16815
X75895Y16497
X76213Y11417
X54292Y55201
X55857Y32313
X66675Y10795
X40323Y1905
X35243Y1587
X82550Y5398
X85725Y5398
X2540Y17780
X76200Y19050
X56515Y65723
X53340Y70168
X31750Y71120
X73660Y19050
X63817Y22860
X68263Y22860
X56786Y27917
X48260Y40958
X72390Y19050
X43180Y47625
X48260Y47625
X28575Y47625
X29210Y53340
X78740Y18733
X81280Y27940
X37148Y41593
X82868Y35243
X60007Y31750
X58420Y32702
X77421Y31750
X74881Y33020
X41593Y41552
X51435Y38793
X24130Y62547
X23812Y48895
X32385Y51435
X50936Y54892
X32385Y55880
X41910Y63228
X43108Y35536
X29210Y36513
X17780Y36830
X14287Y49530
X8890Y46990
X8890Y49530
X51435Y60642
X16192Y62865
X16510Y59690
X22860Y62547
X22225Y60642
X48577Y61026
X40640Y71120
X38100Y69850
X27305Y73025
X34290Y54292
X6350Y38100
X6350Y33338
X78105Y16828
X38100Y25082
X38100Y23177
X62547Y67628
X57150Y57150
X57150Y53340
X83820Y17780
X35878Y49530
X48260Y38418
X48260Y36579
X78740Y60960
X68580Y60960
X71120Y60960
X39370Y72390
X34290Y75565
X33020Y53975
X59690Y54610
X13335Y35878
X13017Y48895
X36830Y17780
X5080Y17780
X16510Y74930
X26352Y74930
X28257Y35560
X20320Y35560
X24765Y35560
X8890Y17780
X13970Y17780
X21590Y17780
X29210Y17780
X53340Y61912
X82233Y15557
X82233Y17780
X78740Y17780
X71120Y18415
X67310Y18733
X58420Y18733
X23177Y60325
X29845Y60017
X29845Y62865
X4445Y30797
X45720Y26035
X83185Y15557
X8544Y32067
X2905Y31480
X9525Y52705
X6350Y32067
X11740Y26043
X34290Y36195
X74930Y29210
X11430Y50800
X4445Y26035
X12382Y25400
X8890Y25400
X24130Y25400
X36830Y39370
X34925Y16510
X8890Y55880
X15875Y54927
X16192Y49212
X27622Y46990
X64770Y30480
X36822Y38410
X26035Y60007
X60960Y50800
X16510Y17780
X12065Y34925
X26035Y34925
X9525Y37783
X22860Y42228
X48895Y41910
X53657Y49212
X59690Y49847
X73978Y49212
X8890Y29210
X13970Y24130
X13335Y59690
X20320Y26035
X2540Y24765
X19050Y22860
X34383Y58458
X29210Y67628
X27940Y59055
X28575Y62547
X32702Y62547
X36830Y4763
X20908Y72120
X43180Y71120
X50810Y71110
X21709Y72604
X42433Y68692
X45402Y72073
X3492Y36513
X60960Y40640
X63500Y40640
X59055Y40640
X49847Y37465
X32067Y13986
M30