G04 EAGLE Gerber RS-274X export*
G75*
%MOMM*%
%FSLAX34Y34*%
%LPD*%
%INSoldermask Top*%
%IPPOS*%
%AMOC8*
5,1,8,0,0,1.08239X$1,22.5*%
G01*
G04 Define Apertures*
%ADD10C,2.743200*%
%ADD11R,1.511200X1.511200*%
%ADD12C,1.511200*%
%ADD13P,1.649562X8X202.500000*%
%ADD14P,1.649562X8X292.500000*%
%ADD15P,1.649562X8X112.500000*%
%ADD16P,1.649562X8X22.500000*%
%ADD17P,1.649562X8X157.500000*%
%ADD18C,1.903200*%
%ADD19C,1.524000*%
%ADD20C,1.727200*%
%ADD21C,2.203200*%
%ADD22C,1.203200*%
%ADD23P,1.635708X8X22.500000*%
%ADD24P,1.649562X8X201.900000*%
%ADD25P,2.364373X8X112.500000*%
%ADD26P,1.869504X8X202.500000*%
%ADD27P,1.869504X8X112.500000*%
%ADD28C,1.711200*%
%ADD29P,1.869504X8X22.500000*%
%ADD30C,1.727200*%
%ADD31P,1.951982X8X22.500000*%
%ADD32C,0.959600*%
D10*
X25400Y25400D03*
X977900Y25400D03*
X977900Y774700D03*
X25400Y774700D03*
D11*
X38100Y127000D03*
D12*
X63500Y127000D03*
X88900Y127000D03*
X114300Y127000D03*
X139700Y127000D03*
X165100Y127000D03*
X190500Y127000D03*
X215900Y127000D03*
X241300Y127000D03*
X266700Y127000D03*
X292100Y127000D03*
X317500Y127000D03*
X342900Y127000D03*
X368300Y127000D03*
X393700Y127000D03*
X393700Y279400D03*
X368300Y279400D03*
X342900Y279400D03*
X317500Y279400D03*
X292100Y279400D03*
X266700Y279400D03*
X241300Y279400D03*
X215900Y279400D03*
X190500Y279400D03*
X165100Y279400D03*
X139700Y279400D03*
X114300Y279400D03*
X88900Y279400D03*
X63500Y279400D03*
X38100Y279400D03*
D13*
X647700Y381000D03*
X596900Y381000D03*
D14*
X342900Y381000D03*
X342900Y330200D03*
D15*
X457200Y152400D03*
X457200Y203200D03*
X685800Y152400D03*
X685800Y203200D03*
D14*
X342900Y622300D03*
X342900Y571500D03*
X342900Y508000D03*
X342900Y457200D03*
X571500Y508000D03*
X571500Y457200D03*
D12*
X565150Y616425D03*
X565150Y596425D03*
X381000Y330675D03*
X381000Y310675D03*
X927100Y251300D03*
X927100Y231300D03*
X927100Y98900D03*
X927100Y78900D03*
D16*
X635000Y76200D03*
X685800Y76200D03*
D13*
X533400Y247650D03*
X482600Y247650D03*
D16*
X393700Y50800D03*
X444500Y50800D03*
D17*
X84636Y26489D03*
X48714Y62411D03*
D16*
X596900Y342900D03*
X647700Y342900D03*
D13*
X850900Y241300D03*
X800100Y241300D03*
D18*
X914400Y584200D03*
X914400Y508000D03*
D19*
X705104Y241300D02*
X691896Y241300D01*
X768096Y241300D02*
X781304Y241300D01*
X705104Y266700D02*
X691896Y266700D01*
X768096Y266700D02*
X781304Y266700D01*
X381000Y437896D02*
X381000Y451104D01*
X406400Y451104D02*
X406400Y437896D01*
X533400Y437896D02*
X533400Y451104D01*
X533400Y514096D02*
X533400Y527304D01*
X431800Y451104D02*
X431800Y437896D01*
X457200Y437896D02*
X457200Y451104D01*
X508000Y451104D02*
X508000Y437896D01*
X482600Y437896D02*
X482600Y451104D01*
X508000Y514096D02*
X508000Y527304D01*
X482600Y527304D02*
X482600Y514096D01*
X457200Y514096D02*
X457200Y527304D01*
X431800Y527304D02*
X431800Y514096D01*
X406400Y514096D02*
X406400Y527304D01*
X381000Y527304D02*
X381000Y514096D01*
X127000Y324104D02*
X127000Y310896D01*
X152400Y310896D02*
X152400Y324104D01*
X279400Y324104D02*
X279400Y310896D01*
X304800Y310896D02*
X304800Y324104D01*
X177800Y324104D02*
X177800Y310896D01*
X203200Y310896D02*
X203200Y324104D01*
X254000Y324104D02*
X254000Y310896D01*
X228600Y310896D02*
X228600Y324104D01*
X304800Y387096D02*
X304800Y400304D01*
X279400Y400304D02*
X279400Y387096D01*
X254000Y387096D02*
X254000Y400304D01*
X228600Y400304D02*
X228600Y387096D01*
X203200Y387096D02*
X203200Y400304D01*
X177800Y400304D02*
X177800Y387096D01*
X152400Y387096D02*
X152400Y400304D01*
X127000Y400304D02*
X127000Y387096D01*
X127000Y437896D02*
X127000Y451104D01*
X152400Y451104D02*
X152400Y437896D01*
X279400Y437896D02*
X279400Y451104D01*
X304800Y451104D02*
X304800Y437896D01*
X177800Y437896D02*
X177800Y451104D01*
X203200Y451104D02*
X203200Y437896D01*
X254000Y437896D02*
X254000Y451104D01*
X228600Y451104D02*
X228600Y437896D01*
X304800Y514096D02*
X304800Y527304D01*
X279400Y527304D02*
X279400Y514096D01*
X254000Y514096D02*
X254000Y527304D01*
X228600Y527304D02*
X228600Y514096D01*
X203200Y514096D02*
X203200Y527304D01*
X177800Y527304D02*
X177800Y514096D01*
X152400Y514096D02*
X152400Y527304D01*
X127000Y527304D02*
X127000Y514096D01*
X127000Y564896D02*
X127000Y578104D01*
X152400Y578104D02*
X152400Y564896D01*
X279400Y564896D02*
X279400Y578104D01*
X304800Y578104D02*
X304800Y564896D01*
X177800Y564896D02*
X177800Y578104D01*
X203200Y578104D02*
X203200Y564896D01*
X254000Y564896D02*
X254000Y578104D01*
X228600Y578104D02*
X228600Y564896D01*
X304800Y641096D02*
X304800Y654304D01*
X279400Y654304D02*
X279400Y641096D01*
X254000Y641096D02*
X254000Y654304D01*
X228600Y654304D02*
X228600Y641096D01*
X203200Y641096D02*
X203200Y654304D01*
X177800Y654304D02*
X177800Y641096D01*
X152400Y641096D02*
X152400Y654304D01*
X127000Y654304D02*
X127000Y641096D01*
X127000Y691896D02*
X127000Y705104D01*
X152400Y705104D02*
X152400Y691896D01*
X279400Y691896D02*
X279400Y705104D01*
X304800Y705104D02*
X304800Y691896D01*
X177800Y691896D02*
X177800Y705104D01*
X203200Y705104D02*
X203200Y691896D01*
X254000Y691896D02*
X254000Y705104D01*
X228600Y705104D02*
X228600Y691896D01*
X304800Y768096D02*
X304800Y781304D01*
X279400Y781304D02*
X279400Y768096D01*
X254000Y768096D02*
X254000Y781304D01*
X228600Y781304D02*
X228600Y768096D01*
X203200Y768096D02*
X203200Y781304D01*
X177800Y781304D02*
X177800Y768096D01*
X152400Y768096D02*
X152400Y781304D01*
X127000Y781304D02*
X127000Y768096D01*
X609600Y451104D02*
X609600Y437896D01*
X635000Y437896D02*
X635000Y451104D01*
X762000Y451104D02*
X762000Y437896D01*
X787400Y437896D02*
X787400Y451104D01*
X660400Y451104D02*
X660400Y437896D01*
X685800Y437896D02*
X685800Y451104D01*
X736600Y451104D02*
X736600Y437896D01*
X711200Y437896D02*
X711200Y451104D01*
X787400Y514096D02*
X787400Y527304D01*
X762000Y527304D02*
X762000Y514096D01*
X736600Y514096D02*
X736600Y527304D01*
X711200Y527304D02*
X711200Y514096D01*
X685800Y514096D02*
X685800Y527304D01*
X660400Y527304D02*
X660400Y514096D01*
X635000Y514096D02*
X635000Y527304D01*
X609600Y527304D02*
X609600Y514096D01*
X609600Y564896D02*
X609600Y578104D01*
X635000Y578104D02*
X635000Y564896D01*
X762000Y564896D02*
X762000Y578104D01*
X787400Y578104D02*
X787400Y564896D01*
X660400Y564896D02*
X660400Y578104D01*
X685800Y578104D02*
X685800Y564896D01*
X736600Y564896D02*
X736600Y578104D01*
X711200Y578104D02*
X711200Y564896D01*
X787400Y641096D02*
X787400Y654304D01*
X762000Y654304D02*
X762000Y641096D01*
X736600Y641096D02*
X736600Y654304D01*
X711200Y654304D02*
X711200Y641096D01*
X685800Y641096D02*
X685800Y654304D01*
X660400Y654304D02*
X660400Y641096D01*
X635000Y641096D02*
X635000Y654304D01*
X609600Y654304D02*
X609600Y641096D01*
D20*
X957580Y190500D02*
X972820Y190500D01*
X972820Y165100D02*
X957580Y165100D01*
X957580Y139700D02*
X972820Y139700D01*
D19*
X495300Y133604D02*
X495300Y120396D01*
X520700Y120396D02*
X520700Y133604D01*
X647700Y133604D02*
X647700Y120396D01*
X647700Y196596D02*
X647700Y209804D01*
X546100Y133604D02*
X546100Y120396D01*
X571500Y120396D02*
X571500Y133604D01*
X622300Y133604D02*
X622300Y120396D01*
X596900Y120396D02*
X596900Y133604D01*
X622300Y196596D02*
X622300Y209804D01*
X596900Y209804D02*
X596900Y196596D01*
X571500Y196596D02*
X571500Y209804D01*
X546100Y209804D02*
X546100Y196596D01*
X520700Y196596D02*
X520700Y209804D01*
X495300Y209804D02*
X495300Y196596D01*
X723900Y133604D02*
X723900Y120396D01*
X749300Y120396D02*
X749300Y133604D01*
X876300Y133604D02*
X876300Y120396D01*
X876300Y196596D02*
X876300Y209804D01*
X774700Y133604D02*
X774700Y120396D01*
X800100Y120396D02*
X800100Y133604D01*
X850900Y133604D02*
X850900Y120396D01*
X825500Y120396D02*
X825500Y133604D01*
X850900Y196596D02*
X850900Y209804D01*
X825500Y209804D02*
X825500Y196596D01*
X800100Y196596D02*
X800100Y209804D01*
X774700Y209804D02*
X774700Y196596D01*
X749300Y196596D02*
X749300Y209804D01*
X723900Y209804D02*
X723900Y196596D01*
D21*
X828200Y667500D02*
X848200Y667500D01*
X848200Y728500D02*
X828200Y728500D01*
X790200Y708500D02*
X790200Y688500D01*
D22*
X838200Y768500D03*
D20*
X292100Y42545D02*
X292100Y27305D01*
X317500Y27305D02*
X317500Y42545D01*
X342900Y42545D02*
X342900Y27305D01*
X203200Y27305D02*
X203200Y42545D01*
X228600Y42545D02*
X228600Y27305D01*
X254000Y27305D02*
X254000Y42545D01*
X114300Y42545D02*
X114300Y27305D01*
X139700Y27305D02*
X139700Y42545D01*
X165100Y42545D02*
X165100Y27305D01*
D23*
X413544Y400050D03*
X399256Y387350D03*
D12*
X413544Y374650D03*
D23*
X399256Y361950D03*
D20*
X906780Y419100D02*
X922020Y419100D01*
X922020Y444500D02*
X906780Y444500D01*
X906780Y469900D02*
X922020Y469900D01*
D16*
X723900Y393700D03*
X711200Y412750D03*
X698500Y393700D03*
D13*
X673100Y406400D03*
X571500Y406400D03*
X711200Y50800D03*
X609600Y50800D03*
D24*
X596897Y24868D03*
X495303Y25932D03*
D13*
X711200Y25400D03*
X609600Y25400D03*
D16*
X571500Y292100D03*
X673100Y292100D03*
D13*
X800100Y342900D03*
X698500Y342900D03*
X546100Y330200D03*
X444500Y330200D03*
X800100Y292100D03*
X698500Y292100D03*
D16*
X571500Y317500D03*
X673100Y317500D03*
D13*
X800100Y317500D03*
X698500Y317500D03*
D16*
X444500Y406400D03*
X546100Y406400D03*
X698500Y368300D03*
X800100Y368300D03*
X444500Y355600D03*
X546100Y355600D03*
D15*
X520700Y673100D03*
X520700Y774700D03*
X495300Y673100D03*
X495300Y774700D03*
X469900Y673100D03*
X469900Y774700D03*
X444500Y673100D03*
X444500Y774700D03*
X419100Y673100D03*
X419100Y774700D03*
X393700Y673100D03*
X393700Y774700D03*
D16*
X368300Y25400D03*
X469900Y25400D03*
X495300Y76200D03*
X596900Y76200D03*
X571500Y241300D03*
X673100Y241300D03*
X571500Y266700D03*
X673100Y266700D03*
X444500Y304800D03*
X546100Y304800D03*
D25*
X838200Y25400D03*
X736600Y50800D03*
X838200Y76200D03*
D13*
X596900Y50800D03*
X495300Y50800D03*
D19*
X406400Y564896D02*
X406400Y578104D01*
X431800Y578104D02*
X431800Y564896D01*
X482600Y641096D02*
X482600Y654304D01*
X457200Y654304D02*
X457200Y641096D01*
X457200Y578104D02*
X457200Y564896D01*
X482600Y564896D02*
X482600Y578104D01*
X508000Y641096D02*
X508000Y654304D01*
X508000Y578104D02*
X508000Y564896D01*
X431800Y641096D02*
X431800Y654304D01*
X406400Y654304D02*
X406400Y641096D01*
D26*
X749300Y774700D03*
X723900Y774700D03*
X698500Y774700D03*
X673100Y774700D03*
X647700Y774700D03*
X749300Y749300D03*
X723900Y749300D03*
X698500Y749300D03*
X673100Y749300D03*
X647700Y749300D03*
D27*
X596900Y698500D03*
X596900Y723900D03*
X596900Y749300D03*
X596900Y774700D03*
X571500Y698500D03*
X571500Y723900D03*
X571500Y749300D03*
X571500Y774700D03*
D20*
X431800Y96520D02*
X431800Y81280D01*
X406400Y81280D02*
X406400Y96520D01*
X381000Y96520D02*
X381000Y81280D01*
X355600Y81280D02*
X355600Y96520D01*
X330200Y96520D02*
X330200Y81280D01*
X304800Y81280D02*
X304800Y96520D01*
X279400Y96520D02*
X279400Y81280D01*
X254000Y81280D02*
X254000Y96520D01*
X228600Y96520D02*
X228600Y81280D01*
X203200Y81280D02*
X203200Y96520D01*
X177800Y96520D02*
X177800Y81280D01*
X152400Y81280D02*
X152400Y96520D01*
X127000Y96520D02*
X127000Y81280D01*
X101600Y81280D02*
X101600Y96520D01*
X76200Y96520D02*
X76200Y81280D01*
D16*
X444500Y381000D03*
X546100Y381000D03*
D20*
X876300Y39370D02*
X876300Y24130D01*
X901700Y24130D02*
X901700Y39370D01*
X927100Y39370D02*
X927100Y24130D01*
D28*
X914400Y297420D02*
X914400Y312500D01*
X914400Y716520D02*
X914400Y731600D01*
X977900Y312500D02*
X977900Y297420D01*
X977900Y716520D02*
X977900Y731600D01*
D20*
X901700Y629920D02*
X901700Y614680D01*
X927100Y614680D02*
X927100Y629920D01*
X845820Y520700D02*
X830580Y520700D01*
X830580Y546100D02*
X845820Y546100D01*
X845820Y571500D02*
X830580Y571500D01*
X830580Y596900D02*
X845820Y596900D01*
X845820Y622300D02*
X830580Y622300D01*
D16*
X647700Y711200D03*
X749300Y711200D03*
D29*
X63500Y393700D03*
X63500Y419100D03*
X63500Y444500D03*
X63500Y469900D03*
X63500Y495300D03*
X63500Y520700D03*
X38100Y393700D03*
X38100Y419100D03*
X38100Y444500D03*
X38100Y469900D03*
X38100Y495300D03*
X38100Y520700D03*
X63500Y546100D03*
X63500Y571500D03*
X38100Y546100D03*
X38100Y571500D03*
X63500Y596900D03*
X38100Y596900D03*
X63500Y622300D03*
X38100Y622300D03*
D30*
X355600Y647700D03*
D27*
X355600Y673100D03*
X355600Y698500D03*
X330200Y647700D03*
X330200Y673100D03*
X330200Y698500D03*
D14*
X342900Y774700D03*
X342900Y723900D03*
D31*
X698500Y685800D03*
X660400Y685800D03*
X368300Y571500D03*
X368300Y609600D03*
D32*
X342900Y542925D03*
X63500Y381000D03*
X63500Y333375D03*
X781050Y168275D03*
X381000Y250825D03*
X381000Y231775D03*
X625475Y676275D03*
X571500Y571500D03*
X571500Y533400D03*
X358775Y495300D03*
X482600Y384175D03*
X482600Y365788D03*
X787400Y609600D03*
X685800Y609600D03*
X711200Y609600D03*
X393700Y723900D03*
X342900Y755650D03*
X330200Y539750D03*
X596900Y546100D03*
X133350Y358775D03*
X368300Y177800D03*
X50800Y177800D03*
X165100Y749300D03*
X263525Y749300D03*
X282575Y355600D03*
X203200Y355600D03*
X247650Y355600D03*
X88900Y177800D03*
X139700Y177800D03*
X215900Y177800D03*
X292100Y177800D03*
X533400Y619125D03*
X342900Y361950D03*
X749300Y292100D03*
X609600Y508000D03*
X165100Y177800D03*
X25400Y177800D03*
X34925Y365125D03*
X609600Y406400D03*
X635000Y406400D03*
X590550Y406400D03*
X498475Y374650D03*
X527050Y374650D03*
X546100Y508000D03*
X717550Y241300D03*
X736600Y241300D03*
X498475Y492125D03*
X38100Y330200D03*
X60325Y365125D03*
X304800Y371475D03*
X317500Y304800D03*
X190500Y419100D03*
X200025Y371475D03*
X76200Y431800D03*
X76200Y457200D03*
X323850Y406400D03*
X330200Y304800D03*
X203200Y476250D03*
X276225Y625475D03*
X254000Y625475D03*
X254000Y469900D03*
X215900Y469900D03*
X215900Y625475D03*
X238125Y733425D03*
X590550Y600075D03*
X565150Y666750D03*
X542925Y679450D03*
X520700Y749300D03*
X177800Y419100D03*
X180975Y723900D03*
X606425Y600075D03*
X565150Y685800D03*
X536575Y742950D03*
X545818Y711200D03*
X222403Y733578D03*
X95250Y301625D03*
X254000Y304800D03*
X228600Y266700D03*
X342900Y247650D03*
X130175Y488950D03*
X95250Y444500D03*
X101600Y419100D03*
X101600Y606425D03*
X123825Y606425D03*
X619352Y470409D03*
X279400Y488950D03*
X298450Y482600D03*
X158750Y463550D03*
X292100Y466725D03*
X644525Y552450D03*
X365125Y428625D03*
X376989Y400886D03*
X473075Y403507D03*
X517917Y426358D03*
X698500Y419100D03*
X762000Y492125D03*
X584200Y431800D03*
X584200Y667032D03*
X806450Y577850D03*
X676275Y720725D03*
X698500Y720725D03*
X736600Y698500D03*
X673100Y619125D03*
X673100Y711200D03*
X549275Y644525D03*
X520700Y476250D03*
X606425Y476250D03*
X622300Y660400D03*
X622300Y619125D03*
X647700Y561975D03*
X632297Y739303D03*
X598959Y680566D03*
X723900Y619125D03*
X723900Y663575D03*
X831850Y234950D03*
X733425Y254000D03*
X622300Y546100D03*
X749300Y406400D03*
X787400Y406400D03*
X454025Y501650D03*
X470004Y293426D03*
X393926Y534373D03*
X393838Y548995D03*
X330200Y342900D03*
X101600Y587375D03*
X152400Y596900D03*
X333375Y406400D03*
X383722Y410342D03*
X106834Y344016D03*
X501650Y419100D03*
X552450Y95250D03*
X469900Y47625D03*
X711200Y114300D03*
X514350Y107950D03*
X533400Y88900D03*
X533400Y187325D03*
X533400Y149961D03*
X597027Y168148D03*
X758952Y164973D03*
X762127Y114173D03*
X542925Y552010D03*
X558574Y323133D03*
X666750Y107950D03*
X403225Y19050D03*
X352425Y15875D03*
X825500Y53975D03*
X857250Y53975D03*
X647700Y304800D03*
X762000Y190500D03*
X565150Y657225D03*
X533400Y701675D03*
X317500Y711200D03*
X736600Y190500D03*
X638175Y228600D03*
X682625Y228600D03*
X567862Y279174D03*
X482600Y409575D03*
X723900Y190500D03*
X431800Y476250D03*
X482600Y476250D03*
X285750Y476250D03*
X292100Y533400D03*
X787400Y187325D03*
X812800Y279400D03*
X371475Y415925D03*
X828675Y352425D03*
X600075Y317500D03*
X584200Y327025D03*
X774207Y317500D03*
X748807Y330200D03*
X415925Y415516D03*
X514350Y387929D03*
X241300Y625475D03*
X238125Y488950D03*
X323850Y514350D03*
X509363Y548922D03*
X323850Y558800D03*
X419100Y632277D03*
X431075Y355357D03*
X292100Y365125D03*
X177800Y368300D03*
X142875Y495300D03*
X88900Y469900D03*
X88900Y495300D03*
X514350Y606425D03*
X161925Y628650D03*
X165100Y596900D03*
X228600Y625475D03*
X222250Y606425D03*
X485775Y610263D03*
X406400Y711200D03*
X381000Y698500D03*
X273050Y730250D03*
X454025Y720725D03*
X424334Y686916D03*
X217092Y726036D03*
X508096Y711104D03*
X431800Y711200D03*
X209078Y721197D03*
X368300Y47625D03*
X327025Y625475D03*
X285750Y625475D03*
X279400Y590550D03*
X292100Y676275D03*
X343828Y584581D03*
X190500Y228600D03*
X25400Y247650D03*
X203200Y260350D03*
X133350Y596900D03*
X139700Y241300D03*
X88900Y292100D03*
X739775Y492125D03*
X596900Y498475D03*
X536575Y492125D03*
X488950Y419100D03*
X228600Y422275D03*
X95250Y377825D03*
X260350Y349250D03*
X120650Y349250D03*
X260350Y600075D03*
X368224Y384099D03*
X320675Y139862D03*
X276225Y469900D03*
X161925Y492125D03*
X158750Y549275D03*
X88900Y558800D03*
X349250Y165100D03*
X368300Y393700D03*
X241300Y254000D03*
X88900Y254000D03*
X123825Y254000D03*
X44450Y260350D03*
X114300Y508000D03*
X117399Y260426D03*
X63500Y320675D03*
X95250Y527050D03*
X29047Y314797D03*
X85443Y320675D03*
X838200Y177800D03*
X831850Y155575D03*
X457200Y260350D03*
X44450Y307975D03*
X298450Y628650D03*
X298450Y600174D03*
X231775Y603250D03*
X584200Y187325D03*
X673100Y187325D03*
X711200Y184150D03*
X787400Y177800D03*
X822325Y177800D03*
X822325Y155575D03*
M02*
